<mxfile host="app.diagrams.net" modified="2021-08-31T07:44:03.374Z" agent="5.0 (Macintosh; Intel Mac OS X 10_15_7) AppleWebKit/537.36 (KHTML, like Gecko) Chrome/92.0.4515.159 Safari/537.36" etag="sK2Z-hW2m5m90b2ufq-h" version="15.0.3" type="github">
  <diagram id="tM43H5YGe2w6ltJZeZHz" name="Main Landing">
    <mxGraphModel dx="1186" dy="633" grid="1" gridSize="10" guides="1" tooltips="1" connect="1" arrows="1" fold="1" page="1" pageScale="1" pageWidth="850" pageHeight="1100" math="0" shadow="0">
      <root>
        <mxCell id="0" />
        <mxCell id="1" parent="0" />
        <mxCell id="zkW4ZXlrT_6_myXE2G8d-1" value="" style="whiteSpace=wrap;html=1;aspect=fixed;" parent="1" vertex="1">
          <mxGeometry x="30" y="120" width="780" height="780" as="geometry" />
        </mxCell>
        <mxCell id="jn6MFovd8rV3hmX8iC2H-2" value="Simulation Session" style="text;strokeColor=none;fillColor=none;html=1;fontSize=24;fontStyle=1;verticalAlign=middle;align=center;" vertex="1" parent="1">
          <mxGeometry x="260" y="170" width="320" height="30" as="geometry" />
        </mxCell>
        <UserObject label="&lt;div style=&quot;font-size: 16px;&quot;&gt;Welcome to the Aconex site clearing simulator. This is a map&lt;/div&gt;&lt;div style=&quot;font-size: 16px;&quot;&gt;of the site:&lt;/div&gt;" placeholders="1" id="jn6MFovd8rV3hmX8iC2H-3">
          <mxCell style="text;html=1;strokeColor=none;fillColor=none;align=center;verticalAlign=middle;whiteSpace=wrap;overflow=hidden;fontSize=16;" vertex="1" parent="1">
            <mxGeometry x="120" y="210" width="600" height="60" as="geometry" />
          </mxCell>
        </UserObject>
        <mxCell id="jn6MFovd8rV3hmX8iC2H-5" value="Upload" style="html=1;strokeColor=none;fillColor=#0079D6;labelPosition=center;verticalLabelPosition=middle;verticalAlign=top;align=center;fontSize=12;outlineConnect=0;spacingTop=-6;fontColor=#FFFFFF;shape=mxgraph.sitemap.upload;" vertex="1" parent="1">
          <mxGeometry x="340" y="350" width="120" height="70" as="geometry" />
        </mxCell>
      </root>
    </mxGraphModel>
  </diagram>
</mxfile>
